<svg viewBox="0 0 40 40" fill="none" xmlns="http://www.w3.org/2000/svg">
  <rect x="8" y="6" width="24" height="28" rx="6" stroke="#8a8a8a" stroke-width="2.5"/>
  <path d="M22 10c-2 2-3 6-2 10l-4 12c0 0 2-4 4-6 2 3 5 4 8 2 3-2 4-6 2-10-2-4-5-8-8-8z" fill="#8a8a8a" opacity="0.2"/>
  <path d="M20 12c-1 2-2 5-1 8l-3 10c1-3 3-5 5-5 2 4 5 5 7 3 2-2 3-5 1-9-1-3-4-7-7-7" fill="#8a8a8a" opacity="0.5"/>
  <path d="M24 14l-1 6-2 7" stroke="#8a8a8a" stroke-width="1.2" stroke-linecap="round" opacity="0.8"/>
</svg>
